<svg width="57" height="19" viewBox="0 0 57 19" fill="none" xmlns="http://www.w3.org/2000/svg">
<path fill-rule="evenodd" clip-rule="evenodd" d="M35.4816 1.95086C35.5182 2.11278 35.5915 2.27471 35.6647 2.33949C35.7746 2.40426 35.8844 2.43664 35.9943 2.37187C36.0675 2.33949 36.1041 2.20994 36.214 1.95086L36.2506 1.91847C36.3239 1.82131 36.3605 1.75654 36.3971 1.69177C36.5436 1.43268 36.7267 1.20598 36.7999 1.07644C36.8731 0.979281 36.8731 0.979281 36.8731 0.946895C36.9097 0.687808 36.69 0.558265 36.4337 0.525879C36.3239 0.525879 36.2506 0.558265 36.1408 0.655422C35.9211 0.882123 35.738 1.14121 35.5915 1.46507C35.5915 1.49745 35.5915 1.52984 35.5549 1.56223C35.5183 1.65938 35.4816 1.75654 35.4816 1.95086ZM56.5004 6.71157C56.4638 6.51726 56.3173 6.35533 56.061 6.35533L53.0583 6.74396C51.1542 7.00305 49.3233 7.22975 47.3825 7.45645C47.1994 7.48883 46.9797 7.48883 46.7966 7.52122C46.6868 7.52122 46.5769 7.52122 46.5037 7.45645C46.3938 7.35929 46.3572 7.16498 46.3938 6.97066C46.5769 6.80873 46.8332 6.6468 47.0896 6.45249L47.4557 6.1934C48.5909 5.38375 49.6162 4.37979 48.9205 3.34345C48.8106 3.2139 48.7008 3.11675 48.5543 3.01959C48.1515 2.79289 47.7121 2.82527 47.3459 3.08436C46.284 3.76446 45.6249 5.99908 45.6249 6.6468L45.1122 6.97066C44.0503 7.65076 43.2813 8.13655 43.1348 7.97462C43.0616 7.84508 43.0616 7.35929 43.0982 6.67919C43.1348 6.29056 43.1348 5.83716 43.1714 5.2866V5.18944C43.1714 5.0599 43.1348 4.99512 43.0616 4.8332C42.9517 4.63888 42.7686 4.54172 42.5489 4.50934C42.256 4.47695 41.8898 4.63888 41.5602 4.93035C41.0476 5.41614 40.4617 6.16101 39.949 6.84112C39.3998 7.55361 38.8871 8.23371 38.5209 8.42802C38.4111 8.49279 38.3378 8.49279 38.3378 8.49279C38.3378 8.49279 38.3378 8.49279 38.3378 8.42802C38.3745 8.13655 38.5209 7.78031 38.6308 7.39168C38.8871 6.51726 39.1801 5.64284 38.9237 5.22183C38.8505 5.12467 38.7406 5.02751 38.6308 4.99512C38.0449 4.86558 37.2759 5.61045 36.1774 6.93827L35.8112 7.3269C35.1155 8.16894 34.4563 8.97858 33.9437 9.27005C33.8338 9.33483 33.7972 9.33483 33.7606 9.33483C33.7606 9.33483 33.724 9.30244 33.7606 9.27005C33.7972 9.04335 33.9803 8.58995 34.1634 8.10416C34.676 6.80873 35.0056 5.80477 34.8591 5.48091C34.7493 5.2866 34.7127 5.22182 34.4929 5.18944C34.1268 5.12467 33.4676 5.64284 32.186 6.93827L31.2339 7.90985C30.4283 8.75188 29.6227 9.56153 29.1833 9.88539C29.1467 9.91777 29.1101 9.91777 29.1101 9.91777C29.1101 9.91777 29.1101 9.88538 29.1101 9.853C29.3664 9.23767 29.5495 8.68711 29.7326 8.13655C29.9157 7.61838 30.0988 7.1002 30.3185 6.51726C30.648 6.25817 31.4903 5.61046 32.3325 4.8332C33.9437 3.34345 34.676 2.17756 34.5296 1.43268C34.4563 1.14121 34.2732 0.882123 33.9071 0.720194C33.3944 0.461107 32.8085 0.655422 32.2226 1.27075C31.1973 2.33949 30.3185 4.41218 29.8424 5.54568L29.6594 5.9667C29.1101 6.38771 28.3777 6.8735 27.7186 7.3269C26.8764 7.87746 26.2173 8.33087 26.1074 8.49279C26.0342 8.58995 26.0708 8.81665 26.1806 8.91381C26.2539 9.01097 26.3637 9.04335 26.4736 8.97858C26.7299 8.84904 27.3524 8.46041 27.9749 8.03939C28.451 7.71553 28.927 7.39168 29.2566 7.19736C29.1833 7.35929 29.1101 7.58599 29.0002 7.84508C28.5608 8.91381 27.9749 10.3712 28.7439 10.7274C29.2566 10.9217 30.2819 10.1121 32.3691 8.00701L32.9916 7.35929C33.3944 6.97066 33.6873 6.6468 33.8338 6.51726H33.8704C33.8704 6.51726 33.8704 6.51726 33.8704 6.54964L33.7606 6.84112C33.2479 8.23371 32.7719 9.59391 32.9916 9.95016C33.1381 10.1769 33.3212 10.274 33.5409 10.3064C34.1634 10.3388 35.0788 9.65868 36.3605 8.16894C36.6534 7.84508 36.9097 7.52122 37.1661 7.22975C37.5322 6.80873 37.8252 6.4201 38.0449 6.22579C38.0815 6.38772 37.935 6.77635 37.8252 7.19736C37.5689 7.97462 37.3125 8.88142 37.6055 9.27005C37.6787 9.36721 37.8252 9.43198 37.9717 9.46437C38.228 9.49676 38.4477 9.43198 38.704 9.33483C38.8505 9.27005 38.9237 9.23767 38.9604 9.20528C38.9604 9.20528 38.997 9.20528 38.997 9.1729C39.4364 8.88142 40.4251 7.71553 41.1941 6.80873C41.6335 6.29056 42.0363 5.83716 42.2194 5.64284C42.3292 5.54568 42.3658 5.54568 42.3658 5.54568C42.4391 5.61046 42.4025 6.06386 42.3658 6.4201C42.2926 7.06782 42.2194 7.90985 42.4757 8.36325C42.6222 8.58995 42.8053 8.71949 43.025 8.75188C43.6475 8.88142 44.4531 8.33087 45.1854 7.84508C45.3685 7.71553 45.5516 7.58599 45.7347 7.48883C45.8079 7.87746 46.0643 8.16894 46.5037 8.29848C46.6135 8.33087 46.9065 8.33086 47.529 8.26609C49.9092 8.07178 55.6948 7.22975 56.354 7.06782C56.3906 7.06782 56.5004 6.90589 56.5004 6.71157ZM32.2959 2.33949C32.6254 1.88608 32.8817 1.59461 33.1015 1.43268C33.1747 1.36791 33.3212 1.4003 33.3578 1.4003C33.4676 1.43268 33.5043 1.49745 33.5409 1.59461C33.6141 1.95086 33.1015 2.7605 32.1494 3.73208C31.6367 4.28264 31.1241 4.70365 30.9044 4.8332C31.0142 4.50934 31.6001 3.31106 32.2959 2.33949ZM47.4557 4.02355C47.6755 3.76446 47.8952 3.69969 48.1149 3.76446C48.1515 3.79685 48.1881 3.79685 48.2247 3.82923C48.3712 4.02355 48.005 4.60649 47.3459 5.22183C47.053 5.5133 46.7966 5.70761 46.6135 5.83716C46.76 5.38375 47.053 4.47695 47.4557 4.02355ZM24.3497 7.42406C24.2399 7.39168 24.0934 7.39168 23.9469 7.42406C23.7638 7.45645 23.6906 7.48883 23.5075 7.61838C23.3244 7.74792 23.1779 7.87746 23.0681 7.97462C22.3723 8.62234 21.6766 9.33483 20.9809 10.0797C20.6513 10.4359 20.2851 10.7922 19.9556 11.1484C20.1386 10.7274 20.2485 10.3712 20.3584 10.0473C20.3584 9.95016 20.3217 9.853 20.1753 9.78823C20.0288 9.72346 19.8457 9.75584 19.7358 9.88539C19.4429 10.3064 18.857 10.9541 18.6373 11.0189C18.1613 11.0837 18.088 10.9217 18.088 10.857C17.8683 10.3064 19.0767 8.75188 19.8457 8.39564C20.1753 8.26609 20.2485 8.36325 20.2851 8.42802C20.3217 8.49279 20.2119 8.88142 20.1386 9.07574C20.102 9.20528 20.0654 9.33483 20.0654 9.3996C20.0288 9.56153 20.1386 9.69107 20.3217 9.72346C20.5414 9.75584 20.7978 9.65868 20.871 9.43198C21.2006 8.68711 21.0541 8.07178 20.7612 7.84508C20.2485 7.45645 19.5528 7.52122 18.7838 8.03939C17.5754 8.84904 16.6599 10.5007 17.2092 11.5694C17.4289 11.9581 18.088 12.0552 18.857 11.7961L18.5274 12.5086L17.136 13.9336L16.4402 14.6461L15.4881 15.6177L15.2318 15.9415C14.6459 16.6864 14.0967 17.3989 14.3896 18.2085C14.5361 18.6619 15.0121 18.8886 15.6712 18.8563C16.1473 18.8239 16.2937 18.7267 16.5135 18.5324C17.3923 17.8847 17.9049 16.3302 18.3444 15.0671C18.4908 14.5813 18.6739 14.1603 18.8204 13.8365L18.9302 13.545C19.0035 13.3507 19.0767 13.1887 19.15 12.9944C19.6626 12.5086 20.2119 11.9581 20.6879 11.4723C21.164 10.9865 21.64 10.5007 22.116 10.0473C22.0794 10.4359 22.0062 10.857 22.2991 11.2132C22.6287 11.699 23.2512 11.7314 23.7272 11.5371C24.7525 11.1484 25.4483 9.69107 25.3384 8.65472C25.2652 7.94224 24.9356 7.52122 24.3497 7.42406ZM16.8796 16.233C16.7332 16.5893 16.5867 16.9131 16.367 17.237C16.2205 17.4637 16.074 17.6904 15.8909 17.9171C15.7445 18.0466 15.4881 18.0466 15.3417 17.9818C15.2684 17.9495 15.2318 17.9171 15.2318 17.8199C15.2318 17.0103 15.9642 16.1359 16.5135 15.5529C16.7332 15.3262 16.9895 15.0995 17.2092 14.8728C17.3557 14.7433 17.4655 14.6137 17.5754 14.5166C17.4289 14.9376 17.2458 15.4557 17.0627 15.812C16.9895 15.9415 16.9529 16.1035 16.8796 16.233ZM23.8371 10.5655C23.7638 10.5979 23.6906 10.6626 23.654 10.695C23.4343 10.7922 23.1413 10.7922 22.9582 10.6626C22.885 10.6303 22.8484 10.5007 22.8118 10.4359C22.7385 9.88539 23.2512 8.75188 23.7638 8.29848C23.9103 8.16894 24.0568 8.10416 24.2033 8.13655C24.3131 8.13655 24.423 8.20132 24.4962 8.29848C24.7525 8.62234 24.4962 10.0149 23.8371 10.5655ZM16.2205 8.9462C16.2937 8.9462 16.367 8.9462 16.4036 8.97858C16.4402 9.01097 16.4768 9.07574 16.5135 9.1729C16.5501 9.27005 16.5867 9.33483 16.6965 9.36721C16.7698 9.3996 16.843 9.36721 16.9163 9.33483C17.0627 9.27005 17.1726 9.04335 17.136 8.75188C17.0993 8.46041 16.9529 8.10416 16.5867 7.97462C16.5501 7.97462 16.5135 7.97462 16.4402 7.97462C15.7811 8.00701 15.0853 8.58995 14.4262 9.14051C14.2431 9.30244 14.0234 9.46437 13.8403 9.6263L13.7671 9.49676C13.6572 9.36721 13.584 9.33483 13.4375 9.30244C12.1559 8.97858 8.49409 10.4359 5.56464 11.6342C3.73373 12.3467 2.15915 12.9944 1.60988 13.0268C1.50003 13.0268 1.46341 13.0268 1.46341 13.0268C1.46341 13.0268 1.42679 12.9944 1.50003 12.8649C1.79297 11.8609 4.75904 10.0473 6.00406 9.30244C6.48009 9.01097 7.43216 8.65472 8.34762 8.33087C9.55601 7.87746 10.2884 7.58599 10.3982 7.39168C10.4715 7.29452 10.4715 7.13259 10.3982 7.00305C10.325 6.8735 10.1419 6.77634 9.95881 6.80873C9.26307 6.93827 8.49409 7.19736 7.76173 7.45645L7.21245 7.65076C6.77304 7.78031 6.51671 7.81269 6.15053 7.74792C6.11391 7.74792 6.07729 7.71553 6.04067 7.71553C5.93082 7.68315 5.82097 7.65076 5.78435 7.52122C6.00406 6.22579 10.5081 4.31502 11.8996 3.76446C12.6319 3.4406 13.8037 3.14913 14.2797 3.05197C14.353 3.05197 14.4262 2.9872 14.4628 2.95482C14.5361 2.85766 14.5361 2.72812 14.4995 2.56619C14.3896 2.37187 14.1333 2.37187 13.9868 2.37187C13.9502 2.37187 13.9502 2.37187 13.9136 2.37187C11.7897 2.46903 5.34493 5.38375 4.83228 7.35929C4.75904 7.61838 4.79566 7.84508 4.94213 8.00701C5.12522 8.26609 5.52802 8.36325 5.85758 8.42802C4.02668 9.3996 1.93945 10.5007 0.804285 12.2172L0.767667 12.3143C0.69443 12.4439 0.621194 12.5734 0.584576 12.703C0.474722 13.0592 0.438104 13.3507 0.547958 13.5774C0.731049 13.9336 1.13385 13.966 1.71974 13.9336C2.01268 13.9012 2.34225 13.8041 2.52534 13.7393H2.56195C2.92814 13.6421 3.84359 13.2535 5.01537 12.7353C7.83496 11.5371 12.5221 9.49675 13.2178 10.2092C13.3643 10.3388 13.0714 10.695 12.7784 11.0513C12.339 11.6018 11.7531 12.3143 12.3756 12.7677C12.4488 12.8325 12.5587 12.8649 12.7052 12.8649C12.8883 12.8649 12.9615 12.8325 13.0714 12.703C13.3643 12.4115 13.6206 11.8609 13.7671 11.1808C14.353 10.4359 15.598 9.01097 16.2205 8.9462Z" fill="black"/>
</svg>
