<svg width="144" height="144" viewBox="0 0 144 144" fill="none" xmlns="http://www.w3.org/2000/svg">
<g filter="url(#filter0_d_309_642)">
<circle cx="72" cy="62" r="54" fill="white"/>
</g>
<path d="M113.478 79.4367C119.807 63.2881 116.444 44.2185 103.398 31.1724C90.3503 18.1247 71.2823 14.7629 55.1337 21.0919" stroke="url(#paint0_linear_309_642)" stroke-width="4" stroke-linecap="round" stroke-linejoin="round"/>
<path d="M89.4367 103.478C73.2881 109.807 54.2185 106.444 41.1724 93.3979C28.1247 80.3502 24.7629 61.2821 31.0919 45.1336" stroke="url(#paint1_linear_309_642)" stroke-width="4" stroke-linecap="round" stroke-linejoin="round"/>
<path d="M72 36.6C72.6365 36.6 73.247 36.3471 73.6971 35.8971C74.1471 35.447 74.4 34.8365 74.4 34.2V29.4C74.4 28.7635 74.1471 28.153 73.6971 27.7029C73.247 27.2529 72.6365 27 72 27C71.3635 27 70.753 27.2529 70.3029 27.7029C69.8529 28.153 69.6 28.7635 69.6 29.4V34.2C69.6 34.8365 69.8529 35.447 70.3029 35.8971C70.753 36.3471 71.3635 36.6 72 36.6ZM93.6 48.6H88.8C88.1635 48.6 87.553 48.8529 87.1029 49.3029C86.6529 49.753 86.4 50.3635 86.4 51C86.4 51.6365 86.6529 52.247 87.1029 52.6971C87.553 53.1471 88.1635 53.4 88.8 53.4H93.6C94.2365 53.4 94.847 53.1471 95.2971 52.6971C95.7471 52.247 96 51.6365 96 51C96 50.3635 95.7471 49.753 95.2971 49.3029C94.847 48.8529 94.2365 48.6 93.6 48.6ZM57.6 51C57.6 50.3635 57.3471 49.753 56.8971 49.3029C56.447 48.8529 55.8365 48.6 55.2 48.6H50.4C49.7635 48.6 49.153 48.8529 48.7029 49.3029C48.2529 49.753 48 50.3635 48 51C48 51.6365 48.2529 52.247 48.7029 52.6971C49.153 53.1471 49.7635 53.4 50.4 53.4H55.2C55.8365 53.4 56.447 53.1471 56.8971 52.6971C57.3471 52.247 57.6 51.6365 57.6 51ZM58.128 34.2C57.6602 33.7576 57.0357 33.5192 56.3921 33.5372C55.7485 33.5552 55.1384 33.8282 54.696 34.296C54.2536 34.7638 54.0152 35.3883 54.0332 36.0319C54.0512 36.6755 54.3242 37.2856 54.792 37.728L58.248 41.064C58.4799 41.2879 58.7546 41.4629 59.0556 41.5783C59.3566 41.6938 59.6778 41.7474 60 41.736C60.3233 41.7348 60.643 41.6682 60.9399 41.5404C61.2369 41.4125 61.5049 41.226 61.728 40.992C62.175 40.5423 62.4259 39.934 62.4259 39.3C62.4259 38.666 62.175 38.0577 61.728 37.608L58.128 34.2ZM84 41.736C84.6179 41.7335 85.2111 41.4928 85.656 41.064L89.112 37.728C89.5336 37.2875 89.7717 36.703 89.778 36.0933C89.7843 35.4836 89.5582 34.8943 89.1458 34.4452C88.7334 33.9961 88.1654 33.7208 87.5574 33.6753C86.9493 33.6297 86.3467 33.8173 85.872 34.2L82.416 37.608C81.969 38.0577 81.7181 38.666 81.7181 39.3C81.7181 39.934 81.969 40.5423 82.416 40.992C82.8315 41.4305 83.3972 41.6962 84 41.736ZM72 65.4C71.3635 65.4 70.753 65.6529 70.3029 66.1029C69.8529 66.553 69.6 67.1635 69.6 67.8V72.6C69.6 73.2365 69.8529 73.847 70.3029 74.2971C70.753 74.7471 71.3635 75 72 75C72.6365 75 73.247 74.7471 73.6971 74.2971C74.1471 73.847 74.4 73.2365 74.4 72.6V67.8C74.4 67.1635 74.1471 66.553 73.6971 66.1029C73.247 65.6529 72.6365 65.4 72 65.4ZM85.752 60.936C85.2937 60.4936 84.6784 60.2514 84.0416 60.2627C83.4047 60.2739 82.7984 60.5377 82.356 60.996C81.9136 61.4543 81.6714 62.0696 81.6827 62.7064C81.6939 63.3433 81.9577 63.9496 82.416 64.392L85.872 67.8C86.3169 68.2288 86.9101 68.4695 87.528 68.472C87.8496 68.4739 88.1683 68.4111 88.4651 68.2874C88.7619 68.1637 89.0309 67.9817 89.256 67.752C89.4809 67.5289 89.6595 67.2634 89.7813 66.971C89.9032 66.6785 89.9659 66.3648 89.9659 66.048C89.9659 65.7312 89.9032 65.4175 89.7813 65.125C89.6595 64.8326 89.4809 64.5671 89.256 64.344L85.752 60.936ZM58.248 61.008L54.792 64.272C54.5671 64.4951 54.3885 64.7606 54.2667 65.053C54.1448 65.3455 54.0821 65.6592 54.0821 65.976C54.0821 66.2928 54.1448 66.6065 54.2667 66.899C54.3885 67.1914 54.5671 67.4569 54.792 67.68C55.0171 67.9097 55.2861 68.0917 55.5829 68.2154C55.8797 68.3391 56.1984 68.4019 56.52 68.4C57.1116 68.405 57.6843 68.1914 58.128 67.8L61.584 64.464C62.0423 64.0216 62.3061 63.4153 62.3173 62.7784C62.3286 62.1416 62.0864 61.5263 61.644 61.068C61.2016 60.6097 60.5953 60.3459 59.9584 60.3347C59.3216 60.3234 58.7063 60.5656 58.248 61.008ZM72 41.4C70.1013 41.4 68.2452 41.963 66.6665 43.0179C65.0878 44.0728 63.8574 45.5721 63.1308 47.3262C62.4042 49.0804 62.214 51.0106 62.5845 52.8729C62.9549 54.7351 63.8692 56.4456 65.2118 57.7882C66.5544 59.1308 68.2649 60.0451 70.1271 60.4155C71.9894 60.786 73.9196 60.5958 75.6738 59.8692C77.4279 59.1426 78.9272 57.9122 79.9821 56.3335C81.037 54.7548 81.6 52.8987 81.6 51C81.6 48.4539 80.5886 46.0121 78.7882 44.2118C76.9879 42.4114 74.5461 41.4 72 41.4Z" fill="#F2C94C"/>
<path d="M72.0002 55.75C69.5271 58.168 67.5628 61.0566 66.2233 64.2455C64.8837 67.4344 64.1958 70.8591 64.2002 74.3179C64.2002 74.9679 64.2236 75.6127 64.2717 76.2523C66.7236 78.668 68.6698 81.5478 69.9967 84.7237C71.3237 87.8996 72.0047 91.308 72.0002 94.75C71.9955 91.3078 72.6765 87.8991 74.0034 84.723C75.3304 81.5468 77.2767 78.6668 79.7287 76.251C80.0154 72.4768 79.472 68.6856 78.1368 65.1438C76.8017 61.6021 74.7071 58.3957 72.0002 55.75Z" fill="#1965CC"/>
<path d="M46 68.75C46 83.1098 57.6402 94.75 72 94.75C72.0047 91.3078 71.3237 87.8992 69.9968 84.723C68.6698 81.5469 66.7235 78.6668 64.2715 76.251C59.4099 71.4369 52.8418 68.7406 46 68.75Z" fill="#9FC8FF"/>
<path d="M98 68.75C98 83.1098 86.3598 94.75 72 94.75C71.9953 91.3078 72.6763 87.8992 74.0033 84.723C75.3302 81.5469 77.2765 78.6668 79.7285 76.251C84.5902 71.4369 91.1582 68.7406 98 68.75Z" fill="#2F88FF"/>
<defs>
<filter id="filter0_d_309_642" x="0" y="0" width="144" height="144" filterUnits="userSpaceOnUse" color-interpolation-filters="sRGB">
<feFlood flood-opacity="0" result="BackgroundImageFix"/>
<feColorMatrix in="SourceAlpha" type="matrix" values="0 0 0 0 0 0 0 0 0 0 0 0 0 0 0 0 0 0 127 0" result="hardAlpha"/>
<feMorphology radius="6" operator="erode" in="SourceAlpha" result="effect1_dropShadow_309_642"/>
<feOffset dy="10"/>
<feGaussianBlur stdDeviation="12"/>
<feComposite in2="hardAlpha" operator="out"/>
<feColorMatrix type="matrix" values="0 0 0 0 0 0 0 0 0 0 0 0 0 0 0 0 0 0 0.25 0"/>
<feBlend mode="normal" in2="BackgroundImageFix" result="effect1_dropShadow_309_642"/>
<feBlend mode="normal" in="SourceGraphic" in2="effect1_dropShadow_309_642" result="shape"/>
</filter>
<linearGradient id="paint0_linear_309_642" x1="102.5" y1="23.5" x2="80.5" y2="45.5" gradientUnits="userSpaceOnUse">
<stop stop-color="#2F88FF"/>
<stop offset="1" stop-color="#2F88FF" stop-opacity="0"/>
</linearGradient>
<linearGradient id="paint1_linear_309_642" x1="41.1724" y1="93.3979" x2="60.2643" y2="74.306" gradientUnits="userSpaceOnUse">
<stop stop-color="#F2C94C"/>
<stop offset="1" stop-color="#F2C94C" stop-opacity="0"/>
</linearGradient>
</defs>
</svg>
