<svg width="100" height="100" viewBox="0 0 100 100" fill="none" xmlns="http://www.w3.org/2000/svg">
<path d="M82.5264 9.62964C81.0978 9.62914 79.6835 9.91342 78.3661 10.4659C77.0488 11.0183 75.8547 11.8279 74.8539 12.8471L73.273 14.4621L71.6766 12.844C70.6747 11.8263 69.4804 11.0181 68.1632 10.4664C66.846 9.91472 65.4322 9.63061 64.0041 9.63061C62.576 9.63061 61.1622 9.91472 59.8449 10.4664C58.5277 11.0181 57.3334 11.8263 56.3316 12.844C54.2975 14.92 53.1582 17.7107 53.1582 20.6171C53.1582 23.5235 54.2975 26.3141 56.3316 28.3901L73.273 45.5388L90.202 28.3901C92.236 26.3141 93.3753 23.5235 93.3753 20.6171C93.3753 17.7107 92.236 14.92 90.202 12.844C89.2005 11.8249 88.0058 11.0158 86.6879 10.4638C85.3699 9.91192 83.9552 9.62832 82.5264 9.62964V9.62964Z" fill="#333333"/>
<path d="M50.0615 93.1609H43.874V77.6921C43.8716 75.2314 42.8929 72.8721 41.1529 71.132C39.4129 69.392 37.0536 68.4133 34.5928 68.4109H22.2178C19.757 68.4133 17.3977 69.392 15.6577 71.132C13.9176 72.8721 12.939 75.2314 12.9365 77.6921V93.1609H6.74902V77.6921C6.75394 73.5911 8.38525 69.6594 11.2851 66.7595C14.185 63.8596 18.1167 62.2283 22.2178 62.2234H34.5928C38.6938 62.2283 42.6255 63.8596 45.5254 66.7595C48.4253 69.6594 50.0566 73.5911 50.0615 77.6921V93.1609Z" fill="#333333"/>
<path d="M28.4053 31.2859C30.2409 31.2859 32.0354 31.8302 33.5617 32.8501C35.088 33.8699 36.2776 35.3194 36.98 37.0154C37.6825 38.7113 37.8663 40.5774 37.5082 42.3778C37.1501 44.1782 36.2661 45.832 34.9681 47.13C33.6701 48.428 32.0164 49.3119 30.216 49.6701C28.4156 50.0282 26.5494 49.8444 24.8535 49.1419C23.1576 48.4394 21.708 47.2498 20.6882 45.7235C19.6684 44.1972 19.124 42.4028 19.124 40.5671C19.124 38.1056 20.1019 35.7449 21.8424 34.0043C23.583 32.2637 25.9437 31.2859 28.4053 31.2859V31.2859ZM28.4053 25.0984C25.3459 25.0984 22.3551 26.0056 19.8113 27.7053C17.2675 29.4051 15.2848 31.821 14.114 34.6475C12.9432 37.4741 12.6369 40.5843 13.2338 43.5849C13.8306 46.5856 15.3039 49.3419 17.4672 51.5052C19.6306 53.6685 22.3868 55.1418 25.3875 55.7387C28.3881 56.3355 31.4984 56.0292 34.3249 54.8584C37.1515 53.6876 39.5673 51.7049 41.2671 49.1611C42.9668 46.6173 43.874 43.6266 43.874 40.5671C43.874 38.5358 43.4739 36.5243 42.6965 34.6475C41.9192 32.7708 40.7797 31.0655 39.3433 29.6291C37.9069 28.1927 36.2017 27.0533 34.3249 26.2759C32.4482 25.4985 30.4367 25.0984 28.4053 25.0984V25.0984Z" fill="#333333"/>
</svg>
