<svg width="217" height="217" viewBox="0 0 217 217" fill="none" xmlns="http://www.w3.org/2000/svg">
<path fill-rule="evenodd" clip-rule="evenodd" d="M93.2293 23.3934C94.8539 24.5635 95.8201 26.4646 95.8201 28.493V75.2601H120.346V28.493C120.346 26.4647 121.312 24.5636 122.937 23.3934C124.563 22.2218 126.644 21.9276 128.521 22.6037C152.327 31.174 169.398 54.3011 169.398 81.504C169.398 107.123 154.259 129.126 132.61 138.761V187.679C132.61 191.128 129.864 193.924 126.478 193.924H89.6896C86.3036 193.924 83.5581 191.128 83.5581 187.679V138.761C61.9107 129.126 46.7695 107.123 46.7695 81.504C46.7695 54.2997 63.8405 31.1737 87.6469 22.6037C89.5233 21.9276 91.605 22.2219 93.2311 23.3934H93.2293ZM83.5574 38.2223C68.8914 46.8638 59.0317 63.0179 59.0317 81.5068C59.0317 103.251 72.6729 121.768 91.7322 128.631C94.1821 129.514 95.8203 131.874 95.8203 134.521V181.438H120.346V134.521C120.346 131.874 121.984 129.514 124.434 128.631C143.493 121.769 157.135 103.253 157.135 81.5068C157.135 63.0193 147.275 46.8656 132.609 38.2223V81.5068C132.609 84.9557 129.863 87.7517 126.478 87.7517H89.6889C86.3029 87.7517 83.5574 84.9556 83.5574 81.5068V38.2223Z" fill="black"/>
</svg>
