<svg width="217" height="217" viewBox="0 0 217 217" fill="none" xmlns="http://www.w3.org/2000/svg">
<path d="M11.4375 161.408C11.4375 169.363 14.5968 176.991 20.2227 182.617C25.8461 188.242 33.476 191.402 41.431 191.402H174.738C182.693 191.402 190.323 188.242 195.946 182.617C201.572 176.991 204.732 169.363 204.732 161.408V54.7625C204.732 46.8076 201.572 39.1799 195.946 33.5542C190.323 27.9285 182.693 24.769 174.738 24.769H41.431C33.476 24.769 25.846 27.9283 20.2227 33.5542C14.5969 39.18 11.4375 46.8076 11.4375 54.7625V161.408ZM174.739 171.407L41.4316 171.405C38.7791 171.405 36.2359 170.351 34.3622 168.478C32.4862 166.602 31.433 164.058 31.433 161.408V94.7547H184.736V161.408C184.736 164.058 183.683 166.602 181.807 168.478C179.933 170.351 177.39 171.405 174.738 171.405L174.739 171.407ZM41.4316 44.7651H174.739C177.391 44.7651 179.934 45.8182 181.808 47.6919C183.684 49.5679 184.737 52.1112 184.737 54.7613V74.7586H31.4341V54.7613C31.4341 52.1112 32.4872 49.568 34.3632 47.6919C36.2369 45.8182 38.7802 44.7651 41.4327 44.7651H41.4316Z" fill="black"/>
<path d="M61.4297 128.081H101.421V148.079H61.4297V128.081Z" fill="black"/>
</svg>
