<svg width="97" height="97" viewBox="0 0 97 97" fill="none" xmlns="http://www.w3.org/2000/svg">
<path d="M87.4873 42.3484H84.4873V30.3484H78.4873V42.3484H72.4873V30.3484H66.4873V42.3484H63.4873C62.6917 42.3484 61.9286 42.6645 61.366 43.2271C60.8034 43.7897 60.4873 44.5527 60.4873 45.3484V57.3484C60.4918 60.8046 61.6878 64.1536 63.8737 66.8309C66.0597 69.5081 69.1018 71.3497 72.4873 72.0454V81.3484C72.4873 82.144 72.1712 82.9071 71.6086 83.4697C71.046 84.0323 70.283 84.3484 69.4873 84.3484H15.4873C14.6917 84.3484 13.9286 84.0323 13.366 83.4697C12.8034 82.9071 12.4873 82.144 12.4873 81.3484C12.4873 80.5527 12.8034 79.7897 13.366 79.2271C13.9286 78.6645 14.6917 78.3484 15.4873 78.3484H30.4873C32.8743 78.3484 35.1634 77.4002 36.8513 75.7124C38.5391 74.0245 39.4873 71.7353 39.4873 69.3484C39.4873 66.9614 38.5391 64.6723 36.8513 62.9844C35.1634 61.2966 32.8743 60.3484 30.4873 60.3484H15.4873C14.6917 60.3484 13.9286 60.0323 13.366 59.4697C12.8034 58.9071 12.4873 58.144 12.4873 57.3484C12.4873 56.5527 12.8034 55.7897 13.366 55.2271C13.9286 54.6645 14.6917 54.3484 15.4873 54.3484H30.4873C32.8735 54.346 35.1613 53.397 36.8486 51.7097C38.5359 50.0224 39.4849 47.7346 39.4873 45.3484V33.3484H42.4873C45.6687 33.3444 48.7186 32.0789 50.9682 29.8293C53.2178 27.5797 54.4833 24.5298 54.4873 21.3484V12.3484H45.4873C42.4157 12.3529 39.4641 13.5413 37.2463 15.6664C35.6922 12.8465 33.4105 10.4947 30.6389 8.8559C27.8673 7.21711 24.7071 6.35123 21.4873 6.34839H12.4873V15.3484C12.4929 20.1206 14.3911 24.6957 17.7655 28.0702C21.14 31.4446 25.7151 33.3428 30.4873 33.3484H33.4873V45.3484C33.4873 46.144 33.1712 46.9071 32.6086 47.4697C32.046 48.0323 31.283 48.3484 30.4873 48.3484H15.4873C13.1004 48.3484 10.8112 49.2966 9.12334 50.9844C7.43552 52.6723 6.4873 54.9614 6.4873 57.3484C6.4873 59.7353 7.43552 62.0245 9.12334 63.7124C10.8112 65.4002 13.1004 66.3484 15.4873 66.3484H30.4873C31.283 66.3484 32.046 66.6645 32.6086 67.2271C33.1712 67.7897 33.4873 68.5527 33.4873 69.3484C33.4873 70.144 33.1712 70.9071 32.6086 71.4697C32.046 72.0323 31.283 72.3484 30.4873 72.3484H15.4873C13.1004 72.3484 10.8112 73.2966 9.12334 74.9844C7.43552 76.6723 6.4873 78.9614 6.4873 81.3484C6.4873 83.7353 7.43552 86.0245 9.12334 87.7124C10.8112 89.4002 13.1004 90.3484 15.4873 90.3484H69.4873C71.8735 90.346 74.1613 89.397 75.8486 87.7097C77.5359 86.0224 78.4849 83.7346 78.4873 81.3484V72.0454C81.8728 71.3497 84.915 69.5081 87.1009 66.8309C89.2868 64.1536 90.4828 60.8046 90.4873 57.3484V45.3484C90.4873 44.5527 90.1712 43.7897 89.6086 43.2271C89.046 42.6645 88.283 42.3484 87.4873 42.3484ZM39.4873 24.3484C39.4889 22.7576 40.1215 21.2324 41.2464 20.1075C42.3713 18.9826 43.8965 18.35 45.4873 18.3484H48.4873V21.3484C48.4857 22.9392 47.8531 24.4644 46.7282 25.5893C45.6033 26.7141 44.0781 27.3468 42.4873 27.3484H39.4873V24.3484ZM30.4873 27.3484C27.3059 27.3444 24.256 26.0789 22.0064 23.8293C19.7568 21.5797 18.4913 18.5298 18.4873 15.3484V12.3484H21.4873C24.6687 12.3524 27.7186 13.6179 29.9682 15.8675C32.2178 18.1171 33.4833 21.167 33.4873 24.3484V27.3484H30.4873ZM84.4873 57.3484C84.4873 59.7353 83.5391 62.0245 81.8513 63.7124C80.1634 65.4002 77.8743 66.3484 75.4873 66.3484C73.1004 66.3484 70.8112 65.4002 69.1233 63.7124C67.4355 62.0245 66.4873 59.7353 66.4873 57.3484V48.3484H84.4873V57.3484Z" fill="#333333"/>
</svg>
