<svg width="169" height="166" viewBox="0 0 169 166" fill="none" xmlns="http://www.w3.org/2000/svg">
<path fill-rule="evenodd" clip-rule="evenodd" d="M30.3807 160.556C30.1347 159.097 42.5363 153.295 54.5243 159.992C72.7575 168.657 93.9748 167.847 111.519 157.814C128.175 148.289 148.867 136.456 160.178 129.988C167.293 125.917 170.144 116.95 166.659 109.432L166.657 109.426C163.121 101.804 154.479 98.1728 146.667 100.969L107.269 115.075C104.722 109.47 99.0739 105.574 92.5149 105.574H78.4336C74.6447 105.574 70.9522 104.402 67.853 102.222C59.6274 96.4255 49.6522 94.2777 40.1219 95.8019C36.7887 96.3337 33.5123 97.3165 30.3817 98.7491V97.4708C30.3817 94.4862 27.9638 92.0684 24.9792 92.0684H6.07046C3.08581 92.0684 0.667969 94.4862 0.667969 97.4708V160.557C0.667969 163.539 3.08581 165.959 6.07046 165.959H24.9792C27.9638 165.959 30.3817 163.539 30.3817 160.557L30.3807 160.556ZM19.5757 102.873V155.153H11.472V102.873H19.5757ZM108.087 126.258C107.333 128.875 105.928 131.281 103.97 133.242C100.929 136.281 96.8069 137.989 92.509 137.989H62.7953C59.8131 137.989 57.3928 135.569 57.3928 132.586C57.3928 129.604 59.8131 127.184 62.7953 127.184H92.509C93.9404 127.184 95.3152 126.614 96.3281 125.601C97.3411 124.588 97.9115 123.213 97.9115 121.781V121.777C97.9115 118.797 95.4936 116.379 92.5139 116.379H78.4326C72.4176 116.379 66.5471 114.518 61.628 111.055V111.053C55.7563 106.916 48.633 105.382 41.8281 106.471C38.0741 107.071 30.3803 111.166 30.3803 111.166V148.749C39.7625 145.418 50.0911 145.923 59.1596 150.232C59.162 150.232 59.162 150.232 59.162 150.234C74.1973 157.376 91.6881 156.707 106.151 148.435L154.811 120.607C157.101 119.297 157.974 116.395 156.852 113.978L156.85 113.972C155.689 111.469 152.87 110.223 150.304 111.142L108.087 126.258Z" fill="black"/>
<path fill-rule="evenodd" clip-rule="evenodd" d="M66.8036 20.3256V25.2712L55.7501 40.2367C55.1145 41.0953 54.7504 42.1216 54.6985 43.1888L53.9834 58.322L49.4913 74.4075C49.3587 74.8802 49.2911 75.3686 49.2911 75.8606V86.6656C49.2911 89.6478 51.7114 92.0681 54.6936 92.0681C57.6759 92.0681 60.0961 89.6478 60.0961 86.6656V76.6009L64.5533 60.6419C64.6643 60.25 64.7294 59.8472 64.7475 59.4421L65.4156 45.3366L76.5496 30.2615C77.2382 29.3318 77.6084 28.2079 77.6084 27.0515V14.7801C83.913 12.3574 90.7603 11.0308 97.9135 11.0308C101.935 11.0308 105.863 11.4493 109.651 12.2488V16.4068L96.6039 19.6699C94.8119 20.1149 93.3732 21.4499 92.7897 23.1998L88.5026 36.0549C88.0516 37.414 88.1565 38.8997 88.7969 40.1803L93.0815 48.7483C93.9968 50.5801 95.866 51.7366 97.9135 51.7366H130.696L140.122 57.3922C140.741 57.7624 141.425 58.006 142.137 58.1085L154.086 59.8149C154.328 61.5357 154.493 63.2867 154.576 65.0559H137.532L128.167 58.0327C127.232 57.3308 126.095 56.9522 124.925 56.9522H100.055C98.5076 56.9522 97.0352 57.6166 96.0091 58.7755L87.441 68.4626C86.5656 69.4502 86.0844 70.7237 86.0844 72.0418V93.465C86.0844 95.5127 87.2409 97.382 89.069 98.297L106.209 106.869C108.875 108.2 112.125 107.117 113.457 104.451C114.791 101.785 113.707 98.536 111.041 97.2032L96.8896 90.1257V74.0895L102.49 67.7572H123.124L132.49 74.7804C133.424 75.4823 134.561 75.8609 135.731 75.8609H154.065C153.47 80.0045 152.431 84.002 150.991 87.8054C149.934 90.5934 151.342 93.7157 154.132 94.7696C156.92 95.826 160.043 94.4187 161.097 91.6282C163.905 84.2045 165.445 76.161 165.445 67.7572C165.445 30.4862 135.186 0.226074 97.9139 0.226074C60.6417 0.226074 30.3828 30.485 30.3828 67.7572C30.3828 74.3451 31.3282 80.7148 33.0925 86.736C33.9294 89.6 36.9332 91.2426 39.7937 90.4044C42.6578 89.5675 44.2991 86.5637 43.4622 83.7032C41.9825 78.6431 41.1878 73.2924 41.1878 67.7575C41.1878 47.9335 51.3803 30.468 66.804 20.3267L66.8036 20.3256ZM120.455 15.6924V20.6248C120.455 23.1029 118.767 25.2638 116.362 25.8658L102.1 29.4317L99.4612 37.3487L101.252 40.9313H132.191C133.168 40.9313 134.13 41.1954 134.971 41.7007L144.746 47.565L151.281 48.4996C145.962 33.7838 134.727 21.8876 120.454 15.6926L120.455 15.6924Z" fill="black"/>
</svg>
