<svg width="104" height="104" viewBox="0 0 104 104" fill="none" xmlns="http://www.w3.org/2000/svg">
<rect width="104" height="104" fill="white"/>
<path d="M50.889 37.3314V29.3225C50.889 28.1031 49.8982 27.1134 48.6773 27.1134C47.455 27.1134 46.4656 28.1031 46.4656 29.3225V37.3314C46.4656 38.5508 47.455 39.5405 48.6773 39.5405C49.8982 39.5405 50.889 38.5508 50.889 37.3314ZM58.0888 41.2695C59.3096 41.2695 60.3004 40.2798 60.3004 39.0604V31.0501C60.3004 29.8306 59.3096 28.8409 58.0888 28.8409C56.8664 28.8409 55.8771 29.8306 55.8771 31.0501V39.0604C55.8771 40.2798 56.8664 41.2695 58.0888 41.2695ZM69.7089 45.4256V37.4168C69.7089 36.1973 68.7181 35.2077 67.4972 35.2077C66.2749 35.2077 65.2856 36.1973 65.2856 37.4168V45.4256C65.2856 46.6451 66.2749 47.6348 67.4972 47.6348C68.7181 47.6348 69.7089 46.6451 69.7089 45.4256ZM41.4776 39.0604V31.0501C41.4776 29.8306 40.4882 28.8409 39.2659 28.8409C38.045 28.8409 37.0542 29.8306 37.0542 31.0501V39.0604C37.0542 40.2798 38.045 41.2695 39.2659 41.2695C40.4882 41.2695 41.4776 40.2798 41.4776 39.0604ZM32.0691 45.4256V37.4168C32.0691 36.1973 31.0783 35.2077 29.8574 35.2077C28.6351 35.2077 27.6457 36.1973 27.6457 37.4168V45.4256C27.6457 46.6451 28.6351 47.6348 29.8574 47.6348C31.0797 47.6348 32.0691 46.6451 32.0691 45.4256ZM48.3751 8C36.9879 8 26.2848 12.4271 18.2358 20.4698C16.981 21.7216 16.2925 23.3859 16.2925 25.1561C16.2925 26.9278 16.9825 28.5935 18.2358 29.8454C20.8234 32.4286 25.0315 32.4286 27.6177 29.8454C33.1646 24.3049 40.5369 21.2563 48.3751 21.2563C64.5601 21.2563 77.7255 34.408 77.7255 50.5729C77.7255 51.7923 78.7163 52.782 79.9372 52.782C81.1595 52.782 82.1489 51.7923 82.1489 50.5729C82.1489 31.9705 66.9989 16.838 48.3751 16.838C39.3558 16.838 30.8718 20.3476 24.4904 26.7216C23.6264 27.5817 22.2242 27.5817 21.3631 26.7216C20.9458 26.3049 20.7158 25.7496 20.7158 25.1561C20.7158 24.567 20.9458 24.0118 21.3631 23.5935C28.5776 16.3844 38.1704 12.4183 48.3751 12.4183C69.4376 12.4183 86.5752 29.5331 86.5752 50.5714C86.5752 56.3844 85.2482 62.0029 82.7563 67.134C81.5384 65.6981 79.744 64.7673 77.7167 64.7673H72.792C73.4378 62.5287 72.8156 60.081 71.0905 58.3579C68.7166 55.9882 63.7816 53.9853 58.6387 52.7511C57.5476 48.2607 53.5017 44.9131 48.6773 44.9131C43.8514 44.9131 39.8011 48.2636 38.713 52.757C33.5716 53.9912 28.638 55.9867 26.2642 58.3579C24.5391 60.081 23.9154 62.5287 24.5627 64.7673H19.635C15.9754 64.7673 13 67.7393 13 71.3947C13 75.0471 15.9754 78.0221 19.635 78.0221H21.5371L27.7445 85.5935V93.7909C27.7445 95.0103 28.7354 96 29.9562 96H67.3999C68.6208 96 69.6116 95.0103 69.6116 93.7909V85.5935L75.819 78.0221H77.7181C79.9357 78.0221 81.8923 76.9175 83.0969 75.243C83.1058 75.2401 83.125 75.2371 83.125 75.2371C83.1559 75.1944 83.181 75.1443 83.2134 75.1016C83.2164 75.0957 83.2193 75.0928 83.2237 75.0869C88.3077 67.8866 91 59.4153 91 50.5714C90.9985 27.0972 71.8764 8 48.3751 8ZM58.7051 57.3166C62.9043 58.4507 66.53 60.0486 67.9632 61.4816C68.724 62.2415 68.7328 63.1473 68.4866 63.7393C68.3288 64.1222 67.8968 64.7658 66.7939 64.7658H52.2234C55.479 63.5626 57.9634 60.7629 58.7051 57.3166ZM48.6773 49.3314C51.8961 49.3314 54.5147 51.9485 54.5147 55.162C54.5147 58.3785 51.8961 60.9926 48.6773 60.9926C45.4571 60.9926 42.84 58.3785 42.84 55.162C42.84 51.9499 45.4571 49.3314 48.6773 49.3314ZM29.3915 61.4816C30.8261 60.0486 34.4518 58.4492 38.6481 57.3166C39.3897 60.7658 41.8742 63.5611 45.1298 64.7673H30.5607C29.4578 64.7673 29.0258 64.1222 28.8681 63.7408C28.6218 63.1473 28.6292 62.2445 29.3915 61.4816ZM65.6866 83.4035C65.3622 83.7982 65.1868 84.2931 65.1868 84.8012V91.5817H32.1679V84.8012C32.1679 84.2916 31.9924 83.7968 31.668 83.4035L27.255 78.0221H70.1011L65.6866 83.4035ZM77.7167 73.6038H19.635C18.4142 73.6038 17.4234 72.6112 17.4234 71.3947C17.4234 70.1753 18.4142 69.1856 19.635 69.1856H77.7181C78.936 69.1856 79.9298 70.1753 79.9298 71.3947C79.9283 72.6112 78.936 73.6038 77.7167 73.6038Z" fill="black"/>
</svg>
