<svg width="424" height="427" viewBox="0 0 424 427" fill="none" xmlns="http://www.w3.org/2000/svg">
<path d="M210.491 149.13C227.538 149.13 243.886 155.903 255.944 167.954C267.999 180.005 274.772 196.352 274.78 213.399C274.784 230.446 268.018 246.797 255.968 258.856C243.921 270.915 227.577 277.696 210.527 277.708C193.48 277.716 177.129 270.954 165.066 258.911C153.004 246.864 146.218 230.52 146.203 213.473C146.203 196.418 152.976 180.063 165.031 167.996C177.086 155.93 193.437 149.144 210.492 149.129L210.491 149.13ZM210.492 115.527V115.531C184.535 115.531 159.637 125.84 141.281 144.195C122.926 162.547 112.609 187.441 112.605 213.398C112.597 239.359 122.906 264.253 141.253 282.617C159.605 300.976 184.495 311.297 210.452 311.305C236.413 311.317 261.311 301.016 279.675 282.668C298.038 264.32 308.363 239.434 308.378 213.473C308.394 187.504 298.089 162.59 279.73 144.219C261.371 125.852 236.464 115.531 210.492 115.531V115.527ZM227.293 66.4139V17.4179C227.293 11.414 224.09 5.87094 218.891 2.86694C213.695 -0.133057 207.289 -0.133057 202.094 2.86694C196.894 5.87084 193.691 11.4138 193.691 17.4179V66.4179C193.691 72.4218 196.894 77.9649 202.094 80.9689C207.289 83.9689 213.696 83.9689 218.891 80.9689C224.09 77.965 227.293 72.422 227.293 66.4179V66.4139ZM326.75 121.184L361.414 86.5749L361.41 86.5788C365.703 82.3171 367.394 76.0909 365.851 70.2429C364.305 64.3952 359.758 59.8169 353.921 58.2309C348.086 56.645 341.847 58.2933 337.554 62.555L302.89 97.1641V97.1601C299.558 100.27 297.629 104.598 297.547 109.156C297.469 113.715 299.242 118.109 302.465 121.332C305.687 124.555 310.082 126.332 314.641 126.25C319.199 126.172 323.527 124.242 326.637 120.906L326.75 121.184ZM423.125 212.129C423.125 207.676 421.355 203.402 418.203 200.25C415.051 197.102 410.781 195.328 406.324 195.328H357.605C351.601 195.328 346.054 198.531 343.054 203.73C340.054 208.93 340.054 215.332 343.054 220.531C346.054 225.727 351.601 228.93 357.605 228.93H406.324C410.781 228.93 415.051 227.16 418.203 224.008C421.355 220.859 423.125 216.586 423.125 212.129V212.129ZM362.082 365.789C365.23 362.641 366.996 358.371 366.996 353.918C366.996 349.465 365.23 345.195 362.082 342.047L327.418 307.383C323.137 303.141 316.918 301.504 311.106 303.094C305.293 304.68 300.766 309.246 299.235 315.078C297.7 320.906 299.395 327.109 303.676 331.351L338.34 366.015C341.489 369.159 345.762 370.925 350.211 370.925C354.664 370.925 358.934 369.159 362.082 366.015L362.082 365.789ZM228.802 410.086V361.086C228.802 355.082 225.599 349.539 220.4 346.535C215.204 343.535 208.798 343.535 203.603 346.535C198.403 349.539 195.2 355.082 195.2 361.086V410.086C195.2 416.09 198.403 421.633 203.603 424.637C208.798 427.637 215.205 427.637 220.4 424.637C225.599 421.633 228.802 416.09 228.802 410.086ZM121.112 120.346C124.256 117.194 126.022 112.924 126.022 108.471C126.022 104.022 124.257 99.7483 121.112 96.6L86.448 61.936C82.1589 57.9399 76.0959 56.4671 70.4559 58.0531C64.8114 59.6351 60.4009 64.0453 58.8189 69.6901C57.2369 75.3307 58.7057 81.3932 62.7018 85.6822L97.3658 120.346C100.518 123.491 104.788 125.256 109.237 125.256C113.69 125.256 117.959 123.491 121.112 120.346L121.112 120.346ZM83.198 211.287C83.198 206.834 81.4285 202.56 78.28 199.408C75.1277 196.26 70.8541 194.486 66.3969 194.486H17.6779C11.6779 194.486 6.13095 197.689 3.12695 202.888C0.126953 208.084 0.126953 214.49 3.12695 219.689C6.13085 224.885 11.6777 228.088 17.6779 228.088H66.3969C70.8539 228.088 75.1275 226.318 78.28 223.166C81.4284 220.017 83.198 215.744 83.198 211.287V211.287ZM85.7175 364.947L120.381 330.283C124.378 325.994 125.85 319.935 124.268 314.291C122.682 308.65 118.272 304.24 112.631 302.654C106.987 301.072 100.928 302.545 96.6391 306.541L61.9202 341.205C57.678 345.455 56.0257 351.646 57.5882 357.447C59.1467 363.244 63.6858 367.771 69.4861 369.318C75.2908 370.865 81.4781 369.2 85.7161 364.947L85.7175 364.947Z" fill="black"/>
</svg>
