<svg width="109" height="109" viewBox="0 0 109 109" fill="none" xmlns="http://www.w3.org/2000/svg">
<path d="M95.8489 36.0129C88.9054 20.1189 73.0429 9.01294 54.5929 9.01294C36.1407 9.01294 20.2804 20.1189 13.3369 36.0129" stroke="black" stroke-width="4" stroke-linecap="round" stroke-linejoin="round"/>
<path d="M54.5928 31.5129C50.3124 35.698 46.9127 40.6974 44.5942 46.2167C42.2757 51.7359 41.0852 57.6633 41.0928 63.6497C41.0928 64.7747 41.1333 65.8907 41.2166 66.9977C45.4602 71.1786 48.8286 76.163 51.1252 81.6597C53.4218 87.1565 54.6006 93.0557 54.5928 99.0129C54.5847 93.0553 55.7633 87.1557 58.0599 81.6585C60.3566 76.1613 63.7251 71.1767 67.9691 66.9954C68.4652 60.4632 67.5248 53.9015 65.2139 47.7715C62.903 41.6416 59.2777 36.092 54.5928 31.5129Z" fill="#2F88FF" stroke="black" stroke-width="4" stroke-linecap="round" stroke-linejoin="round"/>
<path d="M9.59277 54.013C9.59277 78.8665 29.7393 99.013 54.5928 99.013C54.6009 93.0553 53.4223 87.1558 51.1256 81.6586C48.829 76.1614 45.4605 71.1767 41.2165 66.9955C32.8022 58.6634 21.4344 53.9966 9.59277 54.013Z" fill="#2F88FF" stroke="black" stroke-width="4" stroke-linecap="round" stroke-linejoin="round"/>
<path d="M99.5928 54.013C99.5928 78.8665 79.4463 99.013 54.5928 99.013C54.5847 93.0553 55.7633 87.1558 58.0599 81.6586C60.3566 76.1614 63.7251 71.1767 67.9691 66.9955C76.3834 58.6634 87.7512 53.9966 99.5928 54.013Z" fill="#2F88FF" stroke="black" stroke-width="4" stroke-linecap="round" stroke-linejoin="round"/>
</svg>
