<svg xmlns="http://www.w3.org/2000/svg" viewBox="0 0 566.93 146.55"><defs><style>.cls-1{fill:#004577;}</style></defs><title>Element 1</title><g id="Ebene_2" data-name="Ebene 2"><g id="Ebene_1-2" data-name="Ebene 1"><path class="cls-1" d="M16.78,78.46a4.93,4.93,0,0,0-4.89,4.94V93.87h9.79V83.4A4.93,4.93,0,0,0,16.78,78.46Zm2.48,13h-5v-8a2.48,2.48,0,1,1,5,0Zm157-44c0,7.39,2.71,14.21,14.67,14.21,11.73,0,14.38-7.61,14.38-14.38V25.82h5.3V23.4h-13v2.42h5.33V44.48c0,3.05,0,7.45-1.81,10.15-2.14,3.16-6.2,4.59-9.87,4.59s-7.45-1.69-8.75-5.43a33.67,33.67,0,0,1-.9-8.29V25.82h5.31V23.4H171v2.42h5.31Zm380.09,37.8h0L543,114.45,529.47,85.22H518.79v2.42h5.35v32.51h-5.35v2.43h13.1v-2.43h-5.34v-4.22h0V91.32h.12L541,122.58h.9L556.2,91.32h.11v24.1c0,.2,0,.35,0,.54v4.19H551v2.43h15.94v-2.43h-5.3v-4c0-.26,0-.48,0-.76v-23c0-.29,0-.51,0-.78v-4h5.3V85.22Zm-73.05,34.93H465.78V104.3h12.64v5.31h2.42v-13h-2.42v5.31H465.79V87.64h15.65v3.83h2.42V85.22H455.21v2.42h5.28v32.51h-5.28v2.43h30.53v-6.44h-2.42ZM59.37,126.56H57.2l-2.31,2.3,1,1L57,128.77v8H55.44v1.39h5.41v-1.39H59.37ZM385.94,42.62c4.91-1,9.26-4,9.26-9.48,0-3.27-2-9.74-13-9.74H366v2.42h5.31V58.37H366v2.42h15.91V58.37h-5.3v-15h3.83l12.66,17.38v0h7.81V58.37h-3.66Zm-8.06-1.07h-1.24V25.82h4.64a7.16,7.16,0,0,1,7.6,7.56C388.88,39.63,383.24,41.55,377.88,41.55Zm52.28,43.67h0v2.42h5.29v14.69h-21.8V87.64H419V85.22H403.06v2.42h5.3v32.51h-5.3v2.43H419v-2.43h-5.31v-15.4h21.8v15.4h-5.29v.5h0v1.91h0v0h15.92v-2.43h-5.31V87.64h5.31V85.22ZM505.52,29.5a3.05,3.05,0,1,0-3-3.05A3,3,0,0,0,505.52,29.5Zm18.4,0a3.05,3.05,0,1,0-3-3.05A3,3,0,0,0,523.92,29.5Zm14.16-3.67h10.55V58.37h-5.29V60.8h16V58.37h-5.37V25.82H564.5v3.85h2.43V23.4H535.65v6.27h2.43Zm-30.72,35h0V59.71h0V58.37h-4.68l3.77-9.09H521l4,9.09h-4.48v1.34h0V60.8h14.72V58.37h-4.78l-14.58-35h-1L500,58.37h-4.34v2.42ZM513.85,32l6.29,14.85H507.46Zm-210,28.79h1l12.76-31.13c.49-1.22,1.09-2.75,1.51-3.84h4.35V23.4H311.91v2.42h4.66c-.71,1.77-1.89,4.73-2.2,5.47l-8.58,21L296.6,31.06c-.39-.88-1.56-3.58-2.29-5.24h4.89V23.4H283.91v2.42h4.7Zm55.77,0V54.36h-2.43v4H339.62l0-15.85h12.63v5.32h2.43V34.77h-2.43v5.32H339.64V25.82h15.64v3.87h2.43V23.4H329.05v2.42h5.28V58.36h-5.28v2.43h30.54Zm49.59,0h0v-5.3a12.82,12.82,0,0,0,10.9,6.12h.7c7.16,0,11.79-4.9,11.79-10.77,0-11.06-20.43-12.41-20.43-20.26,0-3.38,3.28-5.8,6.49-5.8,6.19,0,10,4.76,10.43,10.67v.06h2.43V23.4h-2.43v4.68a12.1,12.1,0,0,0-10.14-5.5h-.06c-5.87,0-11.06,4.22-11.06,10,0,11.17,19.86,12.18,19.86,20.76,0,4.12-3.67,6.1-7.44,6.1-3.31,0-10.1-1.57-11-10.41v-.25h-2.42v12h2.4Zm47-2.42h-5.36V25.82h5.36V23.4H440.25v2.42h5.29V58.37h-5.29V60.8h15.92ZM495,29.67V23.4H463.7v6.27h2.44V25.83h10.55V58.37H471.4V60.8h16V58.37H482V25.82h10.58v3.85ZM112.48,56.18h-9.8V70.7h9.8Zm-2.42,12.1h-5V58.6h5ZM73.28,0a73.28,73.28,0,1,0,73.27,73.28A73.36,73.36,0,0,0,73.28,0ZM2.42,73.28A71.36,71.36,0,0,1,3.54,60.79H26.59V73.4H2.42ZM4.88,91.45h-.1A71.08,71.08,0,0,1,2.84,81a2.46,2.46,0,0,1,2,2.42Zm.59,2.42H7.3V83.4a4.91,4.91,0,0,0-4.67-4.91c-.06-.89-.11-1.77-.15-2.67H26.59V96.64H6.38C6.06,95.73,5.75,94.8,5.47,93.87Zm8.84,18.69v-5.89a2.48,2.48,0,1,1,5,0v8H15.82C15.31,114,14.8,113.29,14.31,112.56Zm5.86,7.6c-.87-1-1.7-2-2.52-3h4V106.67a4.9,4.9,0,1,0-9.79,0v2a69.24,69.24,0,0,1-4.61-9.58H26.59v21.1Zm53.11,24a70.64,70.64,0,0,1-50.87-21.55H124.14A70.64,70.64,0,0,1,73.28,144.13Zm.5-112c12.31,0,22.61,6.84,27.69,12.7l.46.33,14.62,5.91H30.28l15.35-5.91.48-.34C51.19,39,61.48,32.11,73.78,32.11Zm-8-1.53V28.25c1.38-1.5,4.33-2.49,7.53-2.49s6,.95,7.44,2.4v2.19a37.65,37.65,0,0,0-7-.66A37,37,0,0,0,65.79,30.58Zm51.71,22.9V73.4H29V53.48Zm0,22.34h0V96.64h-5v-10h0V83.42a4.9,4.9,0,1,0-9.79,0v3.26H95.33V83.41a4.9,4.9,0,0,0-9.79,0v3.27H78.17V83.41a4.9,4.9,0,0,0-9.79,0v3.27H61V83.36a4.9,4.9,0,1,0-9.79,0v3.32H43.85V83.36a4.9,4.9,0,1,0-9.79,0V96.64H29V75.82H117.5Zm0,23.24v21.1h-5V99.06Zm-13.75-2.42H36.48V89.1h73.59v7.54Zm6.3,2.42v21.1h-3.88V99.06Zm-6.3,0v21.1H91.11V99.06Zm-15.08,0v21.1H84.81V99.06Zm-6.3,0v21.1H64.16V99.06Zm-20.65,0v21.1H57.86V99.06Zm-6.3,0v21.1H42.78V99.06Zm-15.08,0v21.1H36.48V99.06ZM36.48,86.68V83.36a2.48,2.48,0,1,1,5,0v3.32Zm17.16,0V83.36a2.48,2.48,0,1,1,5,0v3.32Zm17.16,0V83.41a2.48,2.48,0,0,1,5,0v3.27Zm17.16,0V83.41a2.48,2.48,0,0,1,5,0v3.27Zm17.16,0V83.42a2.48,2.48,0,1,1,5,0v3.26ZM34.06,99.06v21.1H29V99.06Zm98.18,13.5c-.49.73-1,1.45-1.51,2.16h-3.44v-8a2.48,2.48,0,1,1,5,0Zm2.42-3.91v-2a4.9,4.9,0,1,0-9.79,0v10.47h4c-.82,1-1.65,2-2.52,3h-6.44V99.06h19.33A69.92,69.92,0,0,1,134.66,108.65Zm7.11-17.2h-.1v-8a2.46,2.46,0,0,1,2-2.42A71.08,71.08,0,0,1,141.77,91.45Zm2.15-13a4.91,4.91,0,0,0-4.67,4.91V93.87h1.83c-.28.93-.59,1.86-.91,2.77H119.94V75.82h24.14C144,76.72,144,77.6,143.92,78.49Zm.21-5.21v.12h-24.2V60.79H143A71.36,71.36,0,0,1,144.13,73.28Zm-24.2-14.91V53.48h2.84V51L103.1,43A40.94,40.94,0,0,0,83.18,30.9V27.28L82.91,27c-1.6-2-4.77-3.32-8.43-3.56V9H72.07V23.4c-3.69.26-6.92,1.65-8.46,3.69l-.24.33v3.77A40.92,40.92,0,0,0,44.48,43l-20.7,8v2.5h2.81v4.9H4a70.86,70.86,0,0,1,138.55,0Zm78.15,26.85h0v2.42h5.29v14.69h-21.8V87.64h5.31V85.22H171v2.42h5.31v32.51H171v2.43h15.92v-2.43h-5.31v-15.4h21.8v15.4h-5.29v.5h0v1.91h0v0H214v-2.43h-5.3V87.64H214V85.22Zm-102.76-29H85.53V70.7h9.79ZM92.9,68.28H88V58.6h5ZM134.66,83.4a4.9,4.9,0,1,0-9.79,0V93.87h9.79Zm-2.42,8h-5v-8a2.48,2.48,0,1,1,5,0ZM43.83,56.18H34V70.7h9.79Zm-2.42,12.1H36.46V58.6h4.95ZM78.18,61.1a4.9,4.9,0,1,0-9.79,0v9.6h9.79Zm-2.42,7.18h-5V61.1a2.48,2.48,0,1,1,5,0Zm141.89-9.91v2.42h13V58.37h-5.3V31.26L250,61.41h1V25.82h5.3V23.4H243.24v2.42h5.33V51.5L225.69,23.4h-9v2.42h4.15c.73.87,2.13,2.53,2.1,2.54s0,29.14,0,30ZM381.92,87.63h5.33v25.68L364.37,85.2h-9v2.43h4.15c.73.86,2.13,2.52,2.1,2.53s0,29.13,0,30h-5.29v2.43h13v-2.43h-5.3V93.07l24.59,30.14h1V87.63H395V85.2H381.92ZM61,56.18H51.21V70.7H61Zm-2.42,12.1H53.63V58.6h4.95ZM291.91,85.22h0v2.42h5.29v14.69h-21.8V87.64h5.31V85.22H264.8v2.42h5.31v32.51H264.8v2.43h15.92v-2.43h-5.31v-15.4h21.8v15.4h-5.29v.5h0v1.91h0v0h15.92v-2.43h-5.3V87.64h5.3V85.22Zm53.46,34.93H327.82l0-15.85h12.63v5.31h2.43v-13h-2.43v5.31H327.84V87.64h15.64v3.83h2.43V85.22H317.26v2.42h5.27v32.51h-5.27v2.43h30.53v-6.44h-2.42Zm-265.9,6.41H77.3L75,128.86l1,1,1.08-1.07v8H75.54v1.39h5.4v-1.39H79.47ZM239.4,84.39c-11.51,0-18.93,9.07-18.93,19.51s7.42,19.52,18.93,19.52,18.92-9.08,18.92-19.52S250.91,84.39,239.4,84.39Zm0,37c-9.58,0-12.38-9.09-12.38-17.5s2.8-17.48,12.38-17.48,12.39,9.08,12.39,17.48S249,121.4,239.4,121.4ZM68.9,131.8a5.11,5.11,0,0,0,1.38-1.24,2.52,2.52,0,0,0,.49-1.44,2.49,2.49,0,0,0-.92-1.89,3.4,3.4,0,0,0-2.32-.79,3.35,3.35,0,0,0-2.39.85,2.74,2.74,0,0,0-.93,2.07,2.91,2.91,0,0,0,.42,1.5,6.21,6.21,0,0,0,1.3,1.42,6,6,0,0,0-1.29,1.3,2.76,2.76,0,0,0,.23,3.55,3.4,3.4,0,0,0,2.65,1.07,3.52,3.52,0,0,0,2.5-.9,2.89,2.89,0,0,0,1-2.2,3.16,3.16,0,0,0-.67-1.92A8.3,8.3,0,0,0,68.9,131.8Zm-2.35-3.72a1.39,1.39,0,0,1,1-.34,1.31,1.31,0,0,1,.95.33,1.35,1.35,0,0,1,.33,1,2,2,0,0,1-.2.9,4.26,4.26,0,0,1-.82,1l-1-.8a2.41,2.41,0,0,1-.5-.65,1.29,1.29,0,0,1-.16-.61A1,1,0,0,1,66.55,128.08Zm2.14,8.49a1.47,1.47,0,0,1-1,.36,1.36,1.36,0,0,1-1.07-.46,1.86,1.86,0,0,1-.43-1.31A2.66,2.66,0,0,1,66.4,134a3.34,3.34,0,0,1,.59-.81A9.57,9.57,0,0,1,68.84,135a1.36,1.36,0,0,1,.22.77A1.07,1.07,0,0,1,68.69,136.57ZM89,131.8a5.11,5.11,0,0,0,1.38-1.24,2.6,2.6,0,0,0,.49-1.44,2.49,2.49,0,0,0-.92-1.89,3.4,3.4,0,0,0-2.32-.79,3.35,3.35,0,0,0-2.39.85,2.74,2.74,0,0,0-.93,2.07,2.91,2.91,0,0,0,.42,1.5,6,6,0,0,0,1.3,1.42,6,6,0,0,0-1.29,1.3,2.87,2.87,0,0,0-.55,1.62,2.84,2.84,0,0,0,.78,1.93,3.4,3.4,0,0,0,2.65,1.07,3.52,3.52,0,0,0,2.5-.9,2.89,2.89,0,0,0,1-2.2,3.16,3.16,0,0,0-.67-1.92A8.3,8.3,0,0,0,89,131.8Zm-2.36-3.72a1.43,1.43,0,0,1,1-.34,1.27,1.27,0,0,1,.94.33,1.31,1.31,0,0,1,.34,1,2,2,0,0,1-.2.9,4.58,4.58,0,0,1-.82,1l-1-.8a2.58,2.58,0,0,1-.49-.65,1.29,1.29,0,0,1-.16-.61A1,1,0,0,1,86.65,128.08Zm2.15,8.49a1.47,1.47,0,0,1-1,.36,1.36,1.36,0,0,1-1.07-.46,1.87,1.87,0,0,1-.44-1.31,2.66,2.66,0,0,1,.27-1.19,3.09,3.09,0,0,1,.59-.81A9.75,9.75,0,0,1,88.94,135a1.37,1.37,0,0,1,.23.77A1.07,1.07,0,0,1,88.8,136.57Zm189.26-78.2h-5.35V25.82h5.35V23.4H262.15v2.42h5.29V58.37h-5.29V60.8h15.91ZM494.31,87.64h5.29v32.51h-5.29v2.43h15.91v-2.43h-5.35V87.64h5.35V85.22H494.31Z"/></g></g></svg>